<svg width="16" height="15" viewBox="0 0 16 15" fill="none" xmlns="http://www.w3.org/2000/svg">
<path d="M12.1715 14.6692C12.044 14.6692 11.9233 14.637 11.8183 14.5815L11.822 14.5837L8.00002 12.573L4.17802 14.5837C4.07677 14.6377 3.95677 14.67 3.82852 14.67C3.41452 14.67 3.07852 14.334 3.07852 13.92C3.07852 13.875 3.08227 13.8315 3.08977 13.7887L3.08902 13.7932L3.81877 9.53848L0.725768 6.52573C0.586268 6.38924 0.499268 6.19948 0.499268 5.98873C0.499268 5.61298 0.776018 5.30098 1.13677 5.24698L1.14127 5.24623L5.41552 4.62148L7.32727 0.749234C7.46527 0.517484 7.71502 0.365234 8.00002 0.365234C8.28502 0.365234 8.53402 0.517484 8.67052 0.745484L8.67277 0.749234L10.5845 4.62223L14.8588 5.24698C15.224 5.30173 15.5 5.61298 15.5 5.98948C15.5 6.20023 15.413 6.38998 15.2735 6.52648L12.1805 9.53923L12.9103 13.794C12.917 13.8322 12.9208 13.8765 12.9208 13.9207C12.9208 14.3347 12.5855 14.6692 12.1715 14.6692ZM8.00002 10.9755C8.12752 10.9755 8.24827 11.007 8.35327 11.0632L8.34952 11.061L11.1755 12.5475L10.6363 9.40198C10.6295 9.36373 10.6258 9.31948 10.6258 9.27523C10.6258 9.06523 10.712 8.87473 10.8515 8.73823L13.139 6.51073L9.97777 6.04873C9.72877 6.01123 9.52327 5.85673 9.41602 5.64298L9.41377 5.63848L8.00002 2.77498L6.58627 5.63848C6.47677 5.85598 6.27127 6.01123 6.02677 6.04798L6.02227 6.04873L2.86102 6.51073L5.14852 8.73823C5.28802 8.87473 5.37502 9.06448 5.37502 9.27523C5.37502 9.32023 5.37127 9.36448 5.36377 9.40648L5.36452 9.40198L4.82527 12.5475L7.65127 11.061C7.75252 11.007 7.87252 10.9755 8.00002 10.9755Z" fill="#FFD200"/>
</svg>
